<svg viewBox="0 0 1440 64" fill="none" xmlns="http://www.w3.org/2000/svg">
<g id="bottom-wave">
<path id="Union" fill-rule="evenodd" clip-rule="evenodd" d="M1251.37 218.255C1388.69 218.255 1500 169.397 1500 109.128C1500 48.8582 1388.69 0 1251.37 0C1165.04 0 1089.03 2.00739 1044.45 31.3302C998.887 6.39859 928.849 0 850.364 0C780.559 0 715.869 10.9968 670.711 31.3302C625.553 10.9968 564.071 7.74455 494.267 7.74455C430.072 7.74455 371.559 8.87075 327.446 26.4019C283.334 8.87075 224.821 7.74455 160.626 7.74455C23.3138 7.74455 -88 56.6027 -88 116.872C-88 177.142 23.3138 226 160.626 226C224.821 226 283.334 215.321 327.446 197.79C371.559 215.321 430.072 226 494.267 226C564.071 226 627.157 213.373 672.315 193.04C717.473 213.373 780.559 226 850.364 226C936.7 226 1012.76 206.684 1057.33 177.362C1102.9 202.293 1172.89 218.255 1251.37 218.255Z" fill="#1e3a8a"/>
</g>
</svg>
