<svg viewBox="0 0 468 468" xmlns="http://www.w3.org/2000/svg" xml:space="preserve" style="fill-rule:evenodd;clip-rule:evenodd;stroke-linecap:round;stroke-linejoin:round;stroke-miterlimit:1.5"><path d="M193.807 249.621h4.933c3.288 17.357 20.329 26.962 36.323 26.962 15.844 0 32.885-9.605 36.173-26.962h4.932c1.495 0 2.392-2.022 1.196-3.37l-10.014-11.29c-.748-.843-1.794-.843-2.541 0l-10.015 11.29c-1.196 1.348-.299 3.37 1.195 3.37h5.382c-3.139 9.268-12.706 14.661-21.674 16.009v-32.186h7.772c1.047 0 1.794-.842 1.794-2.022v-6.74c0-1.011-.747-2.022-1.794-2.022h-7.772v-.843c5.68-2.191 9.566-8.257 9.566-15.166.149-8.931-6.278-16.177-14.051-16.177-8.071-.168-14.499 7.077-14.499 16.008 0 7.078 3.886 13.144 9.567 15.335v.843h-7.773c-1.047 0-1.794 1.011-1.794 2.022v6.74c0 1.18.747 2.022 1.794 2.022h7.773v32.186c-8.82-1.348-18.536-6.741-21.675-16.009h5.382c1.494 0 2.391-2.022 1.195-3.37l-10.015-11.29c-.747-.843-1.793-.843-2.541 0l-10.014 11.29c-1.196 1.348-.299 3.37 1.195 3.37Zm41.256-48.531c2.541 0 4.783 2.528 4.783 5.392 0 3.034-2.242 5.393-4.783 5.393-2.691 0-4.783-2.359-4.783-5.393 0-2.864 2.092-5.392 4.783-5.392Z" style="fill:#02006d;fill-rule:nonzero"/><path d="M233.597 78.975c-84.96 0-153.936 69.252-153.936 154.552s68.976 154.552 153.936 154.552c84.96 0 153.936-69.252 153.936-154.552S318.557 78.975 233.597 78.975Zm0 21.875c72.934 0 132.148 59.451 132.148 132.677s-59.214 132.677-132.148 132.677c-72.935 0-132.148-59.451-132.148-132.677S160.662 100.85 233.597 100.85Z" style="fill:#02006d"/><path d="M163.771 315.743c.802-.727 1.245-1.508 1.332-2.342.087-.834-.123-1.975-.629-3.422-1.215-2.795-1.838-5.152-1.871-7.071-.033-1.919.804-3.653 2.51-5.201 1.687-1.531 3.63-2.161 5.829-1.891 2.2.271 4.185 1.363 5.954 3.277 1.796 1.942 2.663 4.057 2.603 6.344-.061 2.287-1.009 4.228-2.843 5.824l-.111.049-3.573-3.865c.942-.855 1.49-1.781 1.642-2.779.153-.997-.163-1.92-.949-2.77-.734-.793-1.548-1.192-2.444-1.195-.895-.003-1.71.329-2.445.996-.679.616-1.008 1.37-.989 2.263.019.892.326 2.194.919 3.904 1.127 2.532 1.635 4.745 1.524 6.64-.111 1.895-1.028 3.625-2.753 5.19-1.781 1.617-3.72 2.294-5.816 2.033-2.096-.261-4.046-1.368-5.85-3.319-1.795-1.942-2.779-4.145-2.95-6.608-.171-2.463.834-4.642 3.017-6.536l.11-.049 3.587 3.879c-1.272 1.155-1.94 2.25-2.004 3.287-.064 1.037.4 2.092 1.393 3.166.776.84 1.579 1.258 2.407 1.254.827-.004 1.628-.357 2.4-1.058ZM190.516 329.464l-7.985-4.865-4.137 6.666 9.389 5.72-2.279 3.673-14.043-8.556 14.62-23.556 14.011 8.536-2.28 3.673-9.356-5.701-3.646 5.873 7.985 4.865-2.279 3.672ZM204.245 336.26l-2.946 10.602-5.249-1.432 7.404-26.643 8.779 2.395c2.649.723 4.536 1.983 5.66 3.78 1.124 1.797 1.344 3.929.659 6.395-.387 1.392-1.035 2.505-1.943 3.341-.908.836-2.049 1.388-3.423 1.657 1.251.84 2.032 1.88 2.344 3.121.311 1.241.243 2.667-.205 4.278l-.524 1.886c-.204.733-.335 1.54-.395 2.424-.06.883.073 1.573.399 2.069l-.107.384-5.434-1.482c-.322-.508-.417-1.217-.284-2.126.134-.909.328-1.822.582-2.737l.504-1.813c.37-1.331.382-2.437.038-3.319-.345-.882-1.029-1.463-2.052-1.742l-3.807-1.038Zm1.155-4.157 3.512.958c1.072.293 1.975.191 2.709-.305s1.268-1.342 1.6-2.538c.34-1.221.332-2.267-.022-3.138-.355-.872-1.062-1.452-2.121-1.741l-3.53-.963-2.148 7.727ZM234.486 344.586l.23 1.06.115-.002.193-1.01 4.289-20.723 5.731-.101-7.308 27.786-5.673.099-8.294-27.512 5.73-.101 4.987 20.504ZM261.815 347.695l-5.251 1.349-7.006-26.768 5.251-1.349 7.006 26.768ZM285.548 327.604l.105.074c1.459 2.673 1.898 5.036 1.319 7.089-.58 2.052-2.145 3.749-4.697 5.089-2.552 1.34-5.005 1.636-7.358.887-2.353-.749-4.29-2.544-5.81-5.386l-3.906-7.299c-1.514-2.831-1.952-5.413-1.313-7.748.638-2.334 2.194-4.151 4.667-5.449 2.619-1.376 4.969-1.722 7.05-1.037 2.08.684 3.87 2.374 5.369 5.069l.003.127-4.641 2.437c-.791-1.641-1.63-2.682-2.516-3.122-.887-.441-1.963-.329-3.227.335-1.084.569-1.69 1.425-1.816 2.567-.127 1.143.265 2.565 1.176 4.267l3.927 7.34c.923 1.725 1.916 2.845 2.981 3.362 1.065.516 2.19.463 3.376-.159 1.163-.611 1.795-1.369 1.896-2.275.101-.906-.307-2.149-1.226-3.731l4.641-2.437ZM301.653 309.482l-6.771 6.423 5.463 5.652 7.961-7.553 3.009 3.113-11.907 11.297-19.304-19.972 11.88-11.271 3.009 3.114-7.933 7.527 4.813 4.979 6.77-6.423 3.01 3.114Z" style="fill:#02006d;fill-rule:nonzero"/><ellipse cx="233.271" cy="231.572" rx="71.06" ry="71.379" style="fill:none;stroke:#02006d;stroke-width:2.76px"/><path d="m124.313 186.636 19.405 4.303.047-.097-15.221-12.847 2.955-6.036 23.597 11.646-2.254 4.604-6.856-3.383-8.982-4.918-.064.09 13.83 12.442-1.505 3.075-18.106-3.379-.032.105 9.243 4.057 6.855 3.383-2.254 4.605-23.597-11.646 2.939-6.004ZM161.366 167.519l-4.548 5.256 3.315 4.766-3.399 3.928-14.991-22.927 3.506-4.051 24.692 11.718-3.4 3.927-5.175-2.617Zm-6.956 1.762 3.175-3.668-8.572-4.332-.071.083 5.468 7.917ZM168.102 139.494l-4.619 3.724 13.897 17.374-3.998 3.224-13.898-17.374-4.59 3.701-2.567-3.209 13.208-10.649 2.567 3.209ZM187.859 128.508l-5.251 2.752 10.273 19.753-4.547 2.384-10.272-19.753-5.219 2.735-1.897-3.648 15.016-7.871 1.897 3.648ZM194.719 124.976l.651 5.192-2.082.777-1.703-4.548-1.793-4.844 3.216-1.2 1.711 4.623ZM215.645 136.306c-.219-1.004-.652-1.741-1.297-2.211-.645-.47-1.682-.845-3.112-1.124-2.873-.344-5.107-.962-6.701-1.855-1.594-.892-2.625-2.406-3.092-4.543-.462-2.114-.062-4.005 1.199-5.676 1.262-1.67 3.098-2.771 5.509-3.303 2.446-.539 4.595-.236 6.448.909 1.853 1.144 3.002 2.849 3.448 5.115l-.012.114-4.868 1.073c-.258-1.181-.762-2.072-1.51-2.675-.748-.602-1.657-.785-2.727-.549-.999.22-1.712.696-2.137 1.427-.426.731-.538 1.557-.337 2.478.186.85.651 1.481 1.394 1.892.743.412 1.959.785 3.646 1.118 2.615.29 4.676.934 6.182 1.932 1.507.998 2.496 2.578 2.969 4.738.488 2.232.129 4.142-1.076 5.732-1.206 1.59-3.037 2.656-5.495 3.198-2.446.539-4.722.289-6.829-.75-2.107-1.039-3.424-2.905-3.952-5.598l.012-.114 4.886-1.077c.349 1.593.935 2.665 1.757 3.213.823.549 1.91.675 3.262.376 1.059-.233 1.782-.689 2.169-1.369.388-.679.476-1.503.264-2.471ZM243.236 115.535l2.363 19.81.108.013 7.049-18.668 6.652.807-3.155 26.209-5.074-.616.917-7.614 1.656-10.136-.105-.031-7.129 17.215-3.389-.411-2.802-18.274-.11.005-.761 10.098-.917 7.614-5.073-.615 3.155-26.209 6.615.803ZM273.396 144.341l-6.439-2.586-3.394 4.711-4.812-1.933 16.639-21.75 4.963 1.993-2.906 27.265-4.812-1.933.761-5.767Zm-3.944-6.017 4.493 1.805 1.258-9.552-.101-.04-5.65 7.787ZM289.416 147.466l-5.977 8.613-4.208-2.943 15.021-21.645 7.038 4.924c2.124 1.485 3.4 3.214 3.829 5.186.429 1.972-.052 3.96-1.442 5.964-.785 1.13-1.713 1.928-2.784 2.394-1.072.466-2.26.603-3.566.412.845 1.151 1.209 2.333 1.092 3.548-.116 1.215-.629 2.477-1.537 3.786l-1.064 1.532a11.671 11.671 0 0 0-1.119 2.057c-.333.776-.434 1.439-.301 1.988l-.217.312-4.356-3.047c-.126-.559.015-1.227.422-2.003.406-.776.868-1.536 1.384-2.28l1.022-1.473c.75-1.081 1.112-2.073 1.085-2.975-.026-.903-.449-1.641-1.269-2.214l-3.053-2.136Zm2.344-3.377 2.815 1.97c.86.601 1.694.794 2.503.58.81-.215 1.551-.808 2.226-1.78.688-.992 1.013-1.936.975-2.832-.039-.896-.483-1.641-1.332-2.236l-2.83-1.979-4.357 6.277ZM299.929 169.525l-3.683-3.558 18.229-19.025 3.684 3.558-18.23 19.025ZM314.063 187.25l-3.027-4.134 8.784-16.5-.093-.066-13.516 9.978-3.049-4.163 21.184-15.638 3.048 4.163-8.77 16.489.094.066 13.501-9.967 3.028 4.134-21.184 15.638ZM332.085 199.119l-3.51-8.136-6.827 2.97 4.127 9.566-3.761 1.636-6.174-14.308 24.127-10.494 6.159 14.274-3.761 1.637-4.114-9.533-6.015 2.616 3.511 8.135-3.762 1.637Z" style="fill:#02006d;fill-rule:nonzero"/><path d="m2.15 236.63 85.323-18.749.006 37.475L2.15 236.63Z" style="fill:#02006d"/><path d="M1.69 234.521A2.157 2.157 0 0 0 0 236.63c0 1.014.704 1.892 1.691 2.108l85.329 18.726c.635.14 1.3-.018 1.807-.427.507-.41.801-1.028.801-1.682l-.005-37.475c0-.653-.295-1.271-.802-1.681a2.148 2.148 0 0 0-1.807-.427L1.69 234.521Zm10.52 2.107 73.114-16.066.005 32.113-73.119-16.047Z" style="fill:none"/><path d="m237.464 465.421-20.792-85.236 37.365-.885-16.573 86.121Z" style="fill:#02006d"/><path d="M235.376 465.935a2.151 2.151 0 0 0 2.141 1.644 2.153 2.153 0 0 0 2.058-1.748l16.573-86.122a2.167 2.167 0 0 0-.469-1.803 2.15 2.15 0 0 0-1.693-.764l-37.365.885a2.146 2.146 0 0 0-1.656.845 2.166 2.166 0 0 0-.381 1.826l20.792 85.237Zm1.84-10.602-17.82-73.054 32.024-.759-14.204 73.813Z" style="fill:none"/><path d="m465.282 234.082-85.861 16.219 1.146-37.458 84.715 21.239Z" style="fill:#02006d"/><path d="M465.679 236.203a2.157 2.157 0 0 0 1.752-2.058 2.157 2.157 0 0 0-1.628-2.157l-84.716-21.239a2.142 2.142 0 0 0-1.817.373 2.16 2.16 0 0 0-.852 1.655l-1.146 37.458c-.02.653.257 1.281.751 1.706a2.144 2.144 0 0 0 1.795.481l85.861-16.219Zm-10.452-2.418-73.575 13.899.981-32.099 72.594 18.2Z" style="fill:none"/><path d="m234.571 2.158 18.688 85.706h-37.376l18.688-85.706Z" style="fill:#02006d"/><path d="M236.671 1.697a2.152 2.152 0 0 0-2.1-1.697c-1.01 0-1.884.706-2.1 1.697l-18.687 85.705c-.14.638.017 1.306.425 1.815a2.146 2.146 0 0 0 1.674.805h37.376c.651 0 1.267-.296 1.675-.805a2.166 2.166 0 0 0 .425-1.815L236.671 1.697Zm-2.1 10.553 16.017 73.456h-32.033l16.016-73.456Z" style="fill:none"/><path d="m99.789 353.008 11.336-34.434 24.822 27.223-36.158 7.211Z" style="fill:#02006d"/><path d="M97.748 352.331a2.165 2.165 0 0 0 .43 2.106c.507.576 1.28.838 2.03.688l36.158-7.212a2.15 2.15 0 0 0 1.623-1.444 2.165 2.165 0 0 0-.457-2.13l-24.822-27.222a2.143 2.143 0 0 0-3.626.78l-11.336 34.434Zm5.239-2.161 9.028-27.423 19.768 21.68-28.796 5.743Z" style="fill:none"/><path d="m368.869 353.428-35.928-7.99 25.426-26.655 10.502 34.645Z" style="fill:#02006d"/><path d="M368.404 355.535a2.145 2.145 0 0 0 2.043-.641c.519-.563.701-1.36.479-2.094l-10.503-34.645a2.153 2.153 0 0 0-1.558-1.471 2.143 2.143 0 0 0-2.051.607l-25.426 26.655a2.163 2.163 0 0 0 1.088 3.599l35.928 7.99Zm-2.663-5.013-28.605-6.361 20.243-21.222 8.362 27.583Z" style="fill:none"/><path d="m100.347 111.464 36.073 7.8-25.29 26.853-10.783-34.653Z" style="fill:#02006d"/><path d="M100.8 109.355a2.142 2.142 0 0 0-2.04.654 2.164 2.164 0 0 0-.465 2.099l10.783 34.652a2.153 2.153 0 0 0 1.568 1.459 2.142 2.142 0 0 0 2.046-.62l25.29-26.853a2.164 2.164 0 0 0 .492-2.121 2.153 2.153 0 0 0-1.601-1.471l-36.073-7.799Zm2.698 4.998 28.737 6.213-20.147 21.392-8.59-27.605Z" style="fill:none"/><path d="m368.943 112.022-12.496 34.095-23.922-28.033 36.418-6.062Z" style="fill:#02006d"/><path d="M370.961 112.768a2.165 2.165 0 0 0-.361-2.121 2.148 2.148 0 0 0-2.008-.754l-36.419 6.062a2.162 2.162 0 0 0-1.281 3.533l23.923 28.033a2.146 2.146 0 0 0 3.649-.659l12.497-34.094Zm-5.311 1.99-9.955 27.161-19.057-22.332 29.012-4.829Z" style="fill:none"/></svg>