<?xml version="1.0" encoding="UTF-8" standalone="no"?><!DOCTYPE svg PUBLIC "-//W3C//DTD SVG 1.1//EN" "http://www.w3.org/Graphics/SVG/1.1/DTD/svg11.dtd"><svg class="matt-logo" width="100%" height="100%" viewBox="0 0 200 200" version="1.1" xmlns="http://www.w3.org/2000/svg" xmlns:xlink="http://www.w3.org/1999/xlink" xml:space="preserve" xmlns:serif="http://www.serif.com/" style="fill-rule:evenodd;clip-rule:evenodd;stroke-linecap:round;stroke-linejoin:round;stroke-miterlimit:1.5;"><g><path d="M82.766,106.835l2.13,-0c1.42,7.493 8.779,11.64 15.686,11.64c6.842,-0 14.201,-4.147 15.621,-11.64l2.13,-0c0.645,-0 1.033,-0.873 0.516,-1.455l-4.324,-4.874c-0.323,-0.364 -0.775,-0.364 -1.098,-0l-4.325,4.874c-0.516,0.582 -0.129,1.455 0.517,1.455l2.324,-0c-1.356,4.001 -5.487,6.329 -9.36,6.911l-0,-13.895l3.356,-0c0.452,-0 0.775,-0.364 0.775,-0.873l-0,-2.91c-0,-0.437 -0.323,-0.873 -0.775,-0.873l-3.356,-0l-0,-0.364c2.453,-0.946 4.131,-3.565 4.131,-6.547c0.065,-3.856 -2.711,-6.984 -6.068,-6.984c-3.485,-0.073 -6.261,3.055 -6.261,6.911c-0,3.055 1.678,5.674 4.131,6.62l0,0.364l-3.357,-0c-0.451,-0 -0.774,0.436 -0.774,0.873l-0,2.91c-0,0.509 0.323,0.873 0.774,0.873l3.357,-0l0,13.895c-3.808,-0.582 -8.004,-2.91 -9.36,-6.911l2.324,-0c0.646,-0 1.033,-0.873 0.517,-1.455l-4.325,-4.874c-0.323,-0.364 -0.775,-0.364 -1.098,-0l-4.325,4.874c-0.516,0.582 -0.129,1.455 0.517,1.455Zm17.816,-20.952c1.097,-0 2.065,1.091 2.065,2.328c0,1.309 -0.968,2.328 -2.065,2.328c-1.162,-0 -2.066,-1.019 -2.066,-2.328c0,-1.237 0.904,-2.328 2.066,-2.328Z" style="fill:#02006d;fill-rule:nonzero;"/><g><path d="M69.795,135.381c0.346,-0.314 0.538,-0.651 0.575,-1.011c0.038,-0.36 -0.053,-0.853 -0.271,-1.477c-0.525,-1.207 -0.794,-2.225 -0.808,-3.053c-0.015,-0.829 0.347,-1.577 1.083,-2.246c0.729,-0.661 1.568,-0.933 2.518,-0.816c0.95,0.117 1.807,0.588 2.571,1.415c0.775,0.838 1.15,1.751 1.124,2.738c-0.026,0.988 -0.436,1.826 -1.228,2.515l-0.048,0.021l-1.543,-1.669c0.407,-0.369 0.644,-0.769 0.709,-1.199c0.066,-0.431 -0.07,-0.829 -0.409,-1.196c-0.317,-0.343 -0.669,-0.515 -1.056,-0.516c-0.386,-0.001 -0.738,0.142 -1.056,0.43c-0.293,0.266 -0.435,0.591 -0.427,0.977c0.008,0.385 0.141,0.947 0.397,1.686c0.487,1.092 0.706,2.048 0.658,2.866c-0.048,0.818 -0.444,1.565 -1.189,2.241c-0.769,0.698 -1.606,0.99 -2.511,0.877c-0.905,-0.113 -1.747,-0.59 -2.526,-1.433c-0.776,-0.838 -1.2,-1.789 -1.274,-2.852c-0.074,-1.064 0.36,-2.004 1.302,-2.822l0.048,-0.021l1.549,1.674c-0.55,0.499 -0.838,0.972 -0.866,1.419c-0.027,0.448 0.173,0.904 0.602,1.367c0.335,0.363 0.682,0.543 1.039,0.542c0.358,-0.002 0.703,-0.155 1.037,-0.457Z" style="fill:#02006d;fill-rule:nonzero;"/><path d="M81.344,141.305l-3.448,-2.101l-1.786,2.878l4.054,2.47l-0.984,1.585l-6.064,-3.694l6.313,-10.169l6.051,3.685l-0.985,1.586l-4.04,-2.462l-1.574,2.536l3.448,2.1l-0.985,1.586Z" style="fill:#02006d;fill-rule:nonzero;"/><path d="M87.273,144.238l-1.272,4.578l-2.267,-0.619l3.198,-11.502l3.791,1.034c1.144,0.312 1.959,0.856 2.444,1.632c0.486,0.776 0.58,1.696 0.284,2.761c-0.167,0.6 -0.446,1.081 -0.838,1.442c-0.393,0.361 -0.885,0.599 -1.479,0.715c0.541,0.363 0.878,0.812 1.012,1.348c0.135,0.535 0.105,1.151 -0.088,1.847l-0.226,0.814c-0.088,0.316 -0.145,0.665 -0.171,1.046c-0.026,0.382 0.032,0.679 0.173,0.894l-0.047,0.166l-2.346,-0.64c-0.139,-0.22 -0.18,-0.526 -0.123,-0.918c0.058,-0.393 0.142,-0.787 0.251,-1.182l0.218,-0.783c0.16,-0.574 0.165,-1.052 0.016,-1.432c-0.149,-0.381 -0.444,-0.632 -0.885,-0.752l-1.645,-0.449Zm0.499,-1.794l1.517,0.413c0.463,0.127 0.853,0.083 1.17,-0.131c0.317,-0.214 0.547,-0.58 0.691,-1.096c0.146,-0.527 0.143,-0.979 -0.01,-1.355c-0.153,-0.376 -0.458,-0.627 -0.916,-0.751l-1.524,-0.416l-0.928,3.336Z" style="fill:#02006d;fill-rule:nonzero;"/><path d="M100.333,147.833l0.099,0.458l0.049,-0.001l0.084,-0.436l1.852,-8.947l2.475,-0.043l-3.156,11.995l-2.45,0.043l-3.582,-11.878l2.475,-0.043l2.154,8.852Z" style="fill:#02006d;fill-rule:nonzero;"/><path d="M112.134,149.175l-2.267,0.583l-3.026,-11.557l2.268,-0.582l3.025,11.556Z" style="fill:#02006d;fill-rule:nonzero;"/><path d="M122.383,140.501l0.046,0.032c0.63,1.154 0.82,2.175 0.569,3.061c-0.25,0.886 -0.926,1.618 -2.028,2.197c-1.102,0.579 -2.161,0.706 -3.178,0.383c-1.016,-0.323 -1.852,-1.098 -2.509,-2.325l-1.686,-3.152c-0.654,-1.222 -0.843,-2.336 -0.568,-3.344c0.276,-1.008 0.948,-1.792 2.016,-2.353c1.131,-0.594 2.146,-0.743 3.044,-0.448c0.899,0.296 1.672,1.025 2.319,2.189l0.002,0.055l-2.005,1.052c-0.341,-0.709 -0.704,-1.158 -1.086,-1.348c-0.383,-0.191 -0.848,-0.142 -1.394,0.144c-0.468,0.246 -0.729,0.616 -0.784,1.109c-0.055,0.493 0.115,1.107 0.508,1.842l1.696,3.169c0.398,0.744 0.827,1.228 1.287,1.451c0.46,0.223 0.946,0.2 1.458,-0.069c0.502,-0.263 0.775,-0.591 0.819,-0.982c0.043,-0.391 -0.133,-0.928 -0.53,-1.61l2.004,-1.053Z" style="fill:#02006d;fill-rule:nonzero;"/><path d="M129.338,132.678l-2.924,2.773l2.359,2.44l3.438,-3.261l1.3,1.344l-5.142,4.877l-8.336,-8.622l5.13,-4.866l1.299,1.344l-3.426,3.25l2.079,2.149l2.923,-2.773l1.3,1.345Z" style="fill:#02006d;fill-rule:nonzero;"/></g><ellipse id="skinny-circle" serif:id="skinny circle" cx="99.808" cy="99.043" rx="30.687" ry="30.816" style="fill:none;stroke:#02006d;stroke-width:2.76px;"/><path d="M52.755,79.643l8.38,1.858l0.021,-0.043l-6.574,-5.546l1.277,-2.606l10.19,5.028l-0.974,1.988l-2.96,-1.461l-3.879,-2.123l-0.028,0.039l5.973,5.371l-0.651,1.328l-7.818,-1.459l-0.014,0.046l3.991,1.751l2.961,1.461l-0.974,1.988l-10.19,-5.028l1.269,-2.592Z" style="fill:#02006d;fill-rule:nonzero;"/><path d="M68.756,71.39l-1.964,2.268l1.432,2.058l-1.468,1.696l-6.474,-9.898l1.514,-1.749l10.663,5.059l-1.468,1.696l-2.235,-1.13Zm-3.003,0.76l1.37,-1.583l-3.701,-1.87l-0.031,0.035l2.362,3.418Z" style="fill:#02006d;fill-rule:nonzero;"/><path d="M71.665,59.291l-1.994,1.607l6.001,7.501l-1.727,1.392l-6.001,-7.501l-1.982,1.598l-1.109,-1.385l5.704,-4.598l1.108,1.386Z" style="fill:#02006d;fill-rule:nonzero;"/><path d="M80.197,54.548l-2.267,1.188l4.436,8.528l-1.964,1.029l-4.436,-8.528l-2.253,1.181l-0.82,-1.575l6.485,-3.398l0.819,1.575Z" style="fill:#02006d;fill-rule:nonzero;"/><path d="M83.16,53.023l0.281,2.242l-0.899,0.335l-0.736,-1.964l-0.774,-2.091l1.389,-0.518l0.739,1.996Z" style="fill:#02006d;fill-rule:nonzero;"/><path d="M92.196,57.914c-0.094,-0.433 -0.281,-0.751 -0.56,-0.954c-0.278,-0.203 -0.726,-0.365 -1.343,-0.485c-1.241,-0.149 -2.206,-0.416 -2.894,-0.801c-0.689,-0.385 -1.134,-1.039 -1.336,-1.962c-0.199,-0.912 -0.027,-1.729 0.518,-2.45c0.545,-0.721 1.338,-1.196 2.379,-1.426c1.056,-0.233 1.984,-0.102 2.784,0.392c0.801,0.494 1.297,1.23 1.49,2.208l-0.006,0.05l-2.102,0.463c-0.111,-0.51 -0.329,-0.895 -0.652,-1.155c-0.323,-0.26 -0.715,-0.339 -1.177,-0.237c-0.432,0.095 -0.74,0.301 -0.924,0.616c-0.183,0.316 -0.232,0.673 -0.145,1.07c0.081,0.367 0.281,0.639 0.602,0.817c0.321,0.178 0.846,0.339 1.575,0.483c1.129,0.125 2.019,0.403 2.669,0.834c0.651,0.431 1.078,1.112 1.282,2.045c0.211,0.964 0.056,1.788 -0.464,2.475c-0.521,0.686 -1.312,1.146 -2.373,1.38c-1.056,0.233 -2.039,0.125 -2.949,-0.323c-0.91,-0.449 -1.479,-1.255 -1.707,-2.417l0.005,-0.05l2.11,-0.465c0.151,0.689 0.404,1.151 0.759,1.388c0.355,0.237 0.825,0.291 1.409,0.162c0.457,-0.1 0.769,-0.297 0.936,-0.591c0.168,-0.293 0.206,-0.649 0.114,-1.067Z" style="fill:#02006d;fill-rule:nonzero;"/><path d="M104.111,48.947l1.021,8.552l0.046,0.006l3.045,-8.059l2.872,0.348l-1.363,11.315l-2.191,-0.266l0.396,-3.287l0.716,-4.376l-0.046,-0.013l-3.079,7.432l-1.463,-0.178l-1.21,-7.889l-0.047,0.002l-0.329,4.36l-0.396,3.287l-2.191,-0.266l1.363,-11.315l2.856,0.347Z" style="fill:#02006d;fill-rule:nonzero;"/><path d="M117.135,61.383l-2.78,-1.116l-1.466,2.033l-2.078,-0.834l7.186,-9.39l2.143,0.86l-1.255,11.771l-2.078,-0.834l0.328,-2.49Zm-1.703,-2.597l1.941,0.779l0.543,-4.124l-0.044,-0.017l-2.44,3.362Z" style="fill:#02006d;fill-rule:nonzero;"/><path d="M124.054,62.732l-2.581,3.719l-1.818,-1.271l6.487,-9.344l3.04,2.125c0.917,0.642 1.468,1.388 1.653,2.239c0.185,0.852 -0.022,1.71 -0.623,2.575c-0.339,0.488 -0.739,0.833 -1.202,1.034c-0.463,0.201 -0.976,0.26 -1.54,0.177c0.365,0.497 0.522,1.008 0.472,1.532c-0.051,0.525 -0.272,1.07 -0.664,1.635l-0.46,0.661c-0.178,0.257 -0.339,0.553 -0.483,0.888c-0.144,0.335 -0.187,0.621 -0.13,0.858l-0.094,0.135l-1.881,-1.315c-0.054,-0.242 0.007,-0.53 0.182,-0.865c0.176,-0.335 0.375,-0.663 0.598,-0.985l0.442,-0.635c0.324,-0.467 0.48,-0.895 0.468,-1.285c-0.011,-0.39 -0.194,-0.708 -0.548,-0.956l-1.318,-0.922Zm1.012,-1.457l1.216,0.85c0.371,0.259 0.731,0.343 1.081,0.25c0.349,-0.093 0.669,-0.349 0.961,-0.768c0.297,-0.428 0.437,-0.836 0.421,-1.223c-0.017,-0.387 -0.209,-0.708 -0.575,-0.965l-1.223,-0.855l-1.881,2.711Z" style="fill:#02006d;fill-rule:nonzero;"/><path d="M128.594,72.255l-1.591,-1.535l7.872,-8.214l1.591,1.536l-7.872,8.213Z" style="fill:#02006d;fill-rule:nonzero;"/><path d="M134.697,79.908l-1.307,-1.785l3.794,-7.123l-0.041,-0.029l-5.837,4.308l-1.316,-1.797l9.148,-6.752l1.316,1.798l-3.787,7.118l0.04,0.029l5.831,-4.303l1.307,1.784l-9.148,6.752Z" style="fill:#02006d;fill-rule:nonzero;"/><path d="M142.48,85.032l-1.516,-3.513l-2.948,1.283l1.782,4.129l-1.624,0.707l-2.666,-6.177l10.419,-4.531l2.66,6.163l-1.625,0.706l-1.776,-4.115l-2.598,1.129l1.516,3.512l-1.624,0.707Z" style="fill:#02006d;fill-rule:nonzero;"/><path id="outside-circle" d="M107.701,33.613l-7.332,-33.613l-7.31,33.518c-14.252,1.476 -27.176,7.48 -37.318,16.554l-13.335,-2.882l4.069,13.071c-7.043,9.556 -11.605,21.059 -12.73,33.552l-33.745,7.413l34.048,7.47c1.486,11.285 5.786,21.684 12.17,30.465l-4.053,12.308l12.73,-2.538c10.343,9.577 23.713,15.902 38.498,17.358l8.226,33.711l6.524,-33.893c14.238,-1.76 27.088,-8.046 37.077,-17.379l13.145,2.922l-4.055,-13.371c6.433,-9.157 10.63,-20.008 11.789,-31.751l33.901,-6.402l-34.086,-8.543c-1.428,-11.527 -5.79,-22.144 -12.311,-31.076l4.794,-13.076l-14.498,2.412c-9.896,-8.763 -22.406,-14.618 -36.198,-16.23Zm-7.752,8.994c31.496,0 57.067,25.666 57.067,57.28c-0,31.613 -25.571,57.279 -57.067,57.279c-31.496,-0 -57.067,-25.666 -57.067,-57.279c-0,-31.614 25.571,-57.28 57.067,-57.28Z" style="fill:#02006d;"/></g></svg>